<svg xmlns="http://www.w3.org/2000/svg" style="display: none">
  <g class="icon-social">
    <symbol viewBox="0 0 14 28" id="icon-facebook">
      <path
        d="M9.53 27.75H2.71V14.85H0V8.47H2.63C2.43 5.58 2.93 3.47 4.15 2.03C4.73171 1.39087 5.44042 0.8802 6.23079 0.530647C7.02116 0.181094 7.87578 0.000357734 8.74 0L13.52 0V6.15H9.76C9.53848 6.90214 9.4538 7.68794 9.51 8.47H13.51V14.85H9.51L9.53 27.75ZM4.22 26.25H8V13.35H12V10H8V9.24C8 7.24 8 5.45 9 4.78L9.19 4.65H12V1.5H8.78C8.12565 1.49154 7.47682 1.62071 6.87559 1.87911C6.27436 2.13752 5.73416 2.5194 5.29 3C4.29 4.23 3.88 6.29 4.19 9.14L4.29 9.97H1.5V13.35H4.22V26.25Z"
        fill="#192144"/>
    </symbol>

    <symbol viewBox="0 0 24 24" id="icon-instagram">
      <path
        d="M17.2802 2.40094C18.4252 2.40347 19.5225 2.85943 20.3321 3.66904C21.1417 4.47865 21.5977 5.57598 21.6002 6.72094V17.2809C21.5977 18.4259 21.1417 19.5232 20.3321 20.3328C19.5225 21.1424 18.4252 21.5984 17.2802 21.6009H6.7202C5.57691 21.5959 4.48204 21.1388 3.6745 20.3295C2.86696 19.5201 2.41233 18.4242 2.4098 17.2809V6.72094C2.41233 5.57764 2.86696 4.48175 3.6745 3.67241C4.48204 2.86308 5.57691 2.406 6.7202 2.40094H17.2802ZM17.2802 0.960938H6.7202C5.19256 0.960938 3.72748 1.56779 2.64727 2.648C1.56706 3.72821 0.960205 5.19329 0.960205 6.72094L0.960205 17.2809C0.960205 18.8086 1.56706 20.2737 2.64727 21.3539C3.72748 22.4341 5.19256 23.0409 6.7202 23.0409H17.2802C18.8078 23.0409 20.2729 22.4341 21.3531 21.3539C22.4333 20.2737 23.0402 18.8086 23.0402 17.2809V6.72094C23.0402 5.19329 22.4333 3.72821 21.3531 2.648C20.2729 1.56779 18.8078 0.960938 17.2802 0.960938V0.960938Z"
        fill="#192144"/>
      <path
        d="M12.0093 7.75642C12.8504 7.75642 13.6727 8.00584 14.372 8.47314C15.0714 8.94045 15.6165 9.60464 15.9384 10.3817C16.2603 11.1588 16.3445 12.0139 16.1804 12.8389C16.0163 13.6639 15.6112 14.4216 15.0165 15.0164C14.4217 15.6112 13.6639 16.0162 12.839 16.1803C12.014 16.3444 11.1589 16.2602 10.3818 15.9383C9.60472 15.6164 8.94052 15.0713 8.47321 14.3719C8.00591 13.6726 7.75649 12.8503 7.75649 12.0092C7.75522 11.4504 7.86436 10.8968 8.07764 10.3802C8.29091 9.8637 8.60412 9.39437 8.99928 8.99921C9.39444 8.60405 9.86377 8.29084 10.3803 8.07756C10.8969 7.86429 11.4504 7.75515 12.0093 7.75642ZM12.0093 6.31641C10.883 6.31451 9.78137 6.64678 8.84393 7.27115C7.90649 7.89553 7.17533 8.78396 6.74299 9.82402C6.31064 10.8641 6.19653 12.009 6.4151 13.1139C6.63368 14.2189 7.17511 15.2341 7.97088 16.0312C8.76664 16.8283 9.78099 17.3715 10.8855 17.5919C11.9901 17.8124 13.1352 17.7002 14.176 17.2696C15.2168 16.839 16.1065 16.1093 16.7324 15.173C17.3584 14.2366 17.6925 13.1356 17.6925 12.0092C17.6938 11.2621 17.5477 10.522 17.2626 9.8314C16.9776 9.14077 16.5592 8.51313 16.0313 7.98438C15.5035 7.45563 14.8765 7.03615 14.1864 6.74994C13.4962 6.46373 12.7564 6.31641 12.0093 6.31641Z"
        fill="#192144"/>
      <path
        d="M17.9043 7.41264C18.6148 7.41264 19.1907 6.8367 19.1907 6.12624C19.1907 5.41578 18.6148 4.83984 17.9043 4.83984C17.1939 4.83984 16.6179 5.41578 16.6179 6.12624C16.6179 6.8367 17.1939 7.41264 17.9043 7.41264Z"
        fill="#192144"/>
    </symbol>

    <symbol viewBox="0 0 31 16" id="icon-vkontakte">
      <path
        d="M23.9461 15.7775C23.2083 15.761 22.4891 15.5431 21.8661 15.1475C21.2157 14.7079 20.6184 14.1945 20.0861 13.6175C19.6461 13.1775 18.9161 12.4375 18.6361 12.4375C18.3561 12.4375 18.1561 13.3575 18.1661 14.0075C18.1703 14.4562 18.0021 14.8894 17.6961 15.2175C17.3481 15.5018 16.9234 15.6758 16.4761 15.7175H14.5561C11.7965 15.6568 9.15414 14.59 7.12606 12.7175C3.44606 9.34753 0.286063 2.90753 0.156063 2.62753C0.0320633 2.39361 -0.0198655 2.12821 0.00683068 1.86481C0.0335268 1.6014 0.137651 1.35181 0.306063 1.14753C0.687199 0.829675 1.16985 0.659328 1.66606 0.667532H5.74606H5.86606C6.20364 0.716784 6.52722 0.835995 6.81606 1.01753C7.08788 1.1998 7.30552 1.45198 7.44606 1.74753C7.87724 2.6706 8.37175 3.56273 8.92606 4.41753C10.2361 6.41753 10.8161 6.87753 11.0261 6.97753C11.2597 6.03979 11.324 5.06788 11.2161 4.10753C11.2511 3.67014 11.179 3.2308 11.0061 2.82753C10.7865 2.65191 10.5169 2.55038 10.2361 2.53753L9.50606 1.84753C9.36606 1.18753 10.0961 0.617532 10.6061 0.397532C11.6238 0.0786297 12.6916 -0.0501836 13.7561 0.017532H14.4661C15.1881 -0.00127074 15.9099 0.0658674 16.6161 0.217532C18.3161 0.577532 18.2561 1.94753 18.1861 3.52753C18.1861 3.98753 18.1361 4.52753 18.1361 5.14753C18.1361 5.29753 18.1361 5.45753 18.1361 5.62753C18.0967 6.06289 18.1271 6.50174 18.2261 6.92753C19.0586 6.23108 19.7597 5.39116 20.2961 4.44753C20.875 3.55527 21.3832 2.61908 21.8161 1.64753C21.9479 1.34025 22.1739 1.08272 22.4614 0.912012C22.7489 0.741299 23.0832 0.666204 23.4161 0.697532H27.6961C27.8224 0.685471 27.9497 0.685471 28.0761 0.697532C29.0761 0.697532 29.6661 0.987532 29.9061 1.54753C30.1461 2.10753 30.0761 3.20753 27.5461 6.15753L26.5461 7.28753C26.0616 7.75797 25.6443 8.29301 25.3061 8.87753C25.6848 9.30811 26.1147 9.69093 26.5861 10.0175C27.7353 10.8835 28.7468 11.9186 29.5861 13.0875C29.7829 13.3148 29.9117 13.593 29.9576 13.8901C30.0036 14.1873 29.965 14.4914 29.8461 14.7675C29.6365 15.0734 29.3561 15.3241 29.0288 15.4982C28.7014 15.6723 28.3368 15.7647 27.9661 15.7675L24.1761 15.8175L23.9461 15.7775ZM18.6361 10.9375C19.5361 10.9375 20.3161 11.7275 21.1461 12.5575C21.5944 13.0471 22.0977 13.4833 22.6461 13.8575C23.0607 14.1333 23.5481 14.2795 24.0461 14.2775H24.1461L27.9461 14.2275C28.1335 14.2168 28.317 14.1692 28.4861 14.0875L28.3861 13.9275C27.6291 12.8959 26.7263 11.9797 25.7061 11.2075C24.5161 10.2075 23.9061 9.73753 23.8361 8.96753C23.7661 8.19753 24.3261 7.52753 25.4461 6.25753L26.4461 5.14753C27.2903 4.28639 27.9834 3.28908 28.4961 2.19753C28.2729 2.1843 28.0492 2.1843 27.8261 2.19753H23.4561C23.377 2.17986 23.2951 2.17986 23.2161 2.19753C22.7532 3.25898 22.2012 4.27929 21.5661 5.24753C19.6761 8.06753 18.7861 8.44753 18.1561 8.44753C17.9607 8.44753 17.7684 8.39945 17.5961 8.30753C16.5961 7.73753 16.5961 6.46753 16.6561 5.54753C16.6561 5.39753 16.6561 5.24753 16.6561 5.11753C16.6561 4.46753 16.6561 3.90753 16.7061 3.42753C16.7861 1.74753 16.7061 1.73753 16.3261 1.64753C15.7138 1.52655 15.09 1.4729 14.4661 1.48753H13.7761C13.1411 1.47441 12.5061 1.50784 11.8761 1.58753C11.9715 1.65784 12.0558 1.74212 12.1261 1.83753C12.5385 2.48787 12.7442 3.24794 12.7161 4.01753C12.8461 5.66753 12.7761 7.81753 11.7161 8.33753C11.5284 8.42537 11.3233 8.4698 11.1161 8.46753C10.1861 8.46753 9.26606 7.58753 7.69606 5.20753C7.09358 4.29624 6.5556 3.34392 6.08606 2.35753L6.00606 2.25753C5.90508 2.20606 5.79736 2.16903 5.68606 2.14753H1.68606H1.61606C2.20606 3.36753 5.00606 8.76753 8.13606 11.5975C9.89364 13.2122 12.1708 14.1451 14.5561 14.2275H16.4061C16.5004 14.2074 16.5914 14.1737 16.6761 14.1275C16.6761 14.1275 16.6761 14.1275 16.6761 14.0375C16.6761 13.7675 16.6761 11.4375 18.2561 11.0375C18.3784 10.9894 18.5059 10.9558 18.6361 10.9375Z"
        fill="#192144"/>
    </symbol>
  </g>

  <g class="icon-users">
    <symbol viewBox="0 0 19 13" id="icon-mail-closed">
      <path fill-rule="evenodd" clip-rule="evenodd"
            d="M16.1393 10.4663L11.8089 6.5L16.1393 2.53365L15.5488 1.90264L9.24997 7.67188L2.95117 1.90264L2.36066 2.53365L6.69108 6.5L2.36066 10.4663L2.95117 11.0974L7.33081 7.08594L9.24997 8.84375L11.1691 7.08594L15.5488 11.0974L16.1393 10.4663ZM1.57593 0.25C0.76692 0.25 0.111084 0.948839 0.111084 1.80786V11.1921C0.111084 12.0525 0.7616 12.75 1.57593 12.75H16.924C17.733 12.75 18.3889 12.0512 18.3889 11.1921V1.80786C18.3889 0.947478 17.7383 0.25 16.924 0.25H1.57593Z"
      />
    </symbol>

    <symbol viewBox="0 0 17 15" id="icon-phone-call">
      <path fill-rule="evenodd" clip-rule="evenodd"
            d="M8.49995 0.0859375C5.7035 0.0859375 2.90033 0.558605 1.88322 1.50071C1.03934 2.2823 0.758038 3.66308 0.663214 4.53732C0.663214 4.53732 0.650146 4.62371 0.650146 4.66087C0.650146 5.0037 0.944447 5.27865 1.30427 5.27865C1.34678 5.27865 2.92002 5.15816 3.86851 5.08404C3.89134 5.08091 3.91434 5.07785 3.93716 5.0717C4.29043 5.06248 4.57505 4.79059 4.57505 4.45392L4.57822 3.23679C4.57822 2.85993 4.90214 2.55716 5.3012 2.55716H11.6987C12.0978 2.55716 12.4218 2.8599 12.4218 3.23679L12.425 4.45392C12.425 4.79059 12.7095 5.06248 13.0628 5.0717C13.0854 5.07789 13.1085 5.08091 13.1315 5.08404C14.0801 5.15812 15.6533 5.27865 15.6957 5.27865C16.0553 5.27865 16.3499 5.0037 16.3499 4.66087C16.3499 4.62371 16.3368 4.53732 16.3368 4.53732C16.2419 3.66308 15.9609 2.28234 15.117 1.50071C14.0996 0.558605 11.2964 0.0859375 8.49995 0.0859375ZM8.49995 8.11752C7.7771 8.11752 7.19164 8.67043 7.19164 9.35311C7.19164 10.0358 7.7771 10.5887 8.49995 10.5887C9.22279 10.5887 9.80823 10.0358 9.80823 9.35311C9.80823 8.67043 9.22279 8.11752 8.49995 8.11752ZM7.51873 5.33731V4.56506C7.51873 4.13881 7.15236 3.79282 6.70106 3.79282C6.24977 3.79282 5.8834 4.13884 5.8834 4.56506V5.33731L1.47095 9.78869C1.16689 10.0698 0.977135 10.462 0.977135 10.8946V12.1333C0.977135 12.816 1.56264 13.3689 2.28545 13.3689H2.61254V14.1412C2.61254 14.5675 2.97895 14.9134 3.43025 14.9134C3.88154 14.9134 4.24792 14.5675 4.24792 14.1412V13.3689H12.752V14.1412C12.752 14.5675 13.1182 14.9134 13.5697 14.9134C14.021 14.9134 14.3873 14.5675 14.3873 14.1412V13.3689H14.7144C15.4373 13.3689 16.0227 12.816 16.0227 12.1333V10.8946C16.0227 10.462 15.833 10.0698 15.5289 9.78869L11.1166 5.33731V4.56506C11.1166 4.13881 10.7502 3.79282 10.2989 3.79282C9.84757 3.79282 9.48124 4.13884 9.48124 4.56506V5.33731H7.51873ZM8.49995 6.88189C9.94564 6.88189 11.1166 7.98777 11.1166 9.35311C11.1166 10.7185 9.94567 11.8244 8.49995 11.8244C7.05426 11.8244 5.88336 10.7185 5.88336 9.35311C5.88336 7.98774 7.05426 6.88189 8.49995 6.88189Z"
      />
    </symbol>

    <symbol viewBox="0 0 17 17" id="icon-phone">
      <path
        d="M11.9047 8.25661C11.9047 8.44223 12.0583 8.59411 12.2461 8.59411C12.4339 8.59411 12.5875 8.44223 12.5875 8.25661C12.5875 6.36324 11.0308 4.82424 9.11565 4.82424C8.9279 4.82424 8.77427 4.97612 8.77427 5.16174C8.77427 5.35074 8.9279 5.49924 9.11565 5.49924C10.6553 5.49924 11.9047 6.73786 11.9047 8.25661ZM9.11565 0.699982C8.9279 0.699982 8.77427 0.851861 8.77427 1.03748C8.77427 1.22312 8.9279 1.37498 9.11565 1.37498C12.9562 1.37498 16.0798 4.46312 16.0798 8.25661C16.0798 8.44223 16.23 8.59411 16.4212 8.59411C16.6089 8.59411 16.7626 8.44223 16.7626 8.25661C16.7626 4.0885 13.3317 0.699982 9.11565 0.699982ZM12.4509 11.8139L12.0037 12.0535C11.2493 12.4619 10.6622 13.5812 9.73116 12.7375L7.30011 10.3L5.20004 8.25661C4.14495 6.92348 5.32635 6.60623 5.73941 5.85699L5.98179 5.41825C6.25489 4.91873 6.35388 4.35849 6.27196 3.79823C6.19345 3.23799 5.93741 2.72836 5.52775 2.32336C5.02935 1.83062 4.36707 1.56062 3.66042 1.56062C2.95376 1.56062 2.28807 1.83062 1.78964 2.32336L1.61556 2.49886C0.693831 3.41012 0.588004 4.97948 1.31514 6.92348C2.0013 8.77973 3.3839 10.7912 5.20004 12.5867C7.96862 15.3239 11.0513 16.9 13.2634 16.9C14.1373 16.9 14.8781 16.6536 15.4039 16.1339L15.5814 15.9584C16.0764 15.469 16.3529 14.8142 16.3563 14.1089C16.3529 13.4204 16.0695 12.7454 15.5814 12.2627C14.7587 11.4494 13.4717 11.2671 12.4509 11.8139Z"
        fill="#161C35"/>
    </symbol>

    <symbol viewBox="0 0 17 14" id="icon-mail">
      <path
        d="M1.0166 2.32528L7.7666 6.55572C7.9934 6.69747 8.2868 6.76467 8.582 6.76467C8.8772 6.76467 9.1706 6.69747 9.3974 6.55572L16.1474 2.32528C16.5875 2.04913 17.0033 0.974976 16.196 0.974976H0.968901C0.161601 0.974976 0.577401 2.04913 1.0166 2.32528ZM16.3517 4.63842L9.3974 8.86677C9.0914 9.05367 8.8772 9.07572 8.582 9.07572C8.2868 9.07572 8.0726 9.05367 7.7666 8.86677C7.4606 8.67987 1.3469 4.94082 0.847401 4.63737C0.496401 4.42317 0.500001 4.67412 0.500001 4.86732V12.525C0.500001 12.966 1.0094 13.575 1.4 13.575H15.8C16.1906 13.575 16.7 12.966 16.7 12.525V4.86837C16.7 4.67517 16.7036 4.42422 16.3517 4.63842Z"
        fill="#161C35"/>
    </symbol>

    <symbol viewBox="0 0 12 12" id="icon-persona">
      <path opacity="0.1"
            d="M3.375 2.92978C3.375 4.45321 4.55275 5.69294 6 5.69294C7.44725 5.69294 8.625 4.45321 8.625 2.92978C8.625 1.40636 7.44725 0.166626 6 0.166626C4.55275 0.166626 3.375 1.40636 3.375 2.92978ZM10.6667 11.8333H11.25V11.2193C11.25 8.8497 9.41775 6.92101 7.16667 6.92101H4.83333C2.58167 6.92101 0.75 8.8497 0.75 11.2193V11.8333H10.6667Z"
            fill="#192144"/>
    </symbol>
  </g>

  <g class="icon-transport">
    <symbol viewBox="0 0 18 20" id="icon-plane">
      <path
        d="M15.7831 0.0931421C15.0546 0.266353 14.3227 0.440377 14.0504 0.917233L11.9433 5.11585L0.629163 7.8059L0.170763 9.14743L8.82861 9.96616L7.35967 13.6009L4.07624 14.3816L3.25187 15.8101L5.62062 16.0673L5.89073 17.2357C6.01174 17.6498 6.43649 17.9263 6.79903 17.8401L7.89351 17.5799L9.16224 19.7433L9.98661 18.3148L9.17628 14.8098L11.5535 11.7795L16.0895 19.741L17.0042 18.7031L14.2128 6.62921L16.7762 2.73424C17.0519 2.25657 16.8721 1.47891 16.6914 0.697594C16.6019 0.310588 16.1457 0.0069433 15.7831 0.0931421Z"
        fill="#101D41"/>
    </symbol>

    <symbol viewBox="0 0 18 21" id="icon-bus">
      <path
        d="M4.34046 13.9485C4.34046 13.5699 4.20185 13.2467 3.92462 12.9788C3.64739 12.711 3.31288 12.5771 2.92106 12.5771C2.52925 12.5771 2.19473 12.711 1.91751 12.9788C1.64028 13.2467 1.50167 13.5699 1.50167 13.9485C1.50167 14.3271 1.64028 14.6503 1.91751 14.9181C2.19473 15.186 2.52925 15.3199 2.92106 15.3199C3.31288 15.3199 3.64739 15.186 3.92462 14.9181C4.20185 14.6503 4.34046 14.3271 4.34046 13.9485ZM15.6956 13.9485C15.6956 13.5699 15.557 13.2467 15.2798 12.9788C15.0025 12.711 14.668 12.5771 14.2762 12.5771C13.8844 12.5771 13.5499 12.711 13.2727 12.9788C12.9954 13.2467 12.8568 13.5699 12.8568 13.9485C12.8568 14.3271 12.9954 14.6503 13.2727 14.9181C13.5499 15.186 13.8844 15.3199 14.2762 15.3199C14.668 15.3199 15.0025 15.186 15.2798 14.9181C15.557 14.6503 15.6956 14.3271 15.6956 13.9485ZM15.1855 9.70563L14.3871 5.59135C14.3501 5.42706 14.267 5.29313 14.1376 5.18956C14.0082 5.08599 13.8585 5.0342 13.6885 5.0342H3.50878C3.33875 5.0342 3.18905 5.08599 3.05968 5.18956C2.9303 5.29313 2.84714 5.42706 2.81017 5.59135L2.01176 9.70563C1.9748 9.91992 2.02655 10.1092 2.16701 10.2735C2.30747 10.4378 2.48859 10.5199 2.71037 10.5199H14.4869C14.7087 10.5199 14.8898 10.4378 15.0303 10.2735C15.1707 10.1092 15.2225 9.91992 15.1855 9.70563ZM12.6794 3.14849C12.6794 3.00563 12.6276 2.88421 12.5242 2.78421C12.4207 2.68421 12.295 2.63421 12.1471 2.63421H5.05015C4.9023 2.63421 4.77663 2.68421 4.67313 2.78421C4.56963 2.88421 4.51788 3.00563 4.51788 3.14849C4.51788 3.29135 4.56963 3.41278 4.67313 3.51278C4.77663 3.61278 4.9023 3.66278 5.05015 3.66278H12.1471C12.295 3.66278 12.4207 3.61278 12.5242 3.51278C12.6276 3.41278 12.6794 3.29135 12.6794 3.14849ZM17.115 10.9163V17.3771H15.6956V18.7485C15.6956 19.1271 15.557 19.4503 15.2798 19.7181C15.0025 19.986 14.668 20.1199 14.2762 20.1199C13.8844 20.1199 13.5499 19.986 13.2727 19.7181C12.9954 19.4503 12.8568 19.1271 12.8568 18.7485V17.3771H4.34046V18.7485C4.34046 19.1271 4.20185 19.4503 3.92462 19.7181C3.64739 19.986 3.31288 20.1199 2.92106 20.1199C2.52925 20.1199 2.19473 19.986 1.91751 19.7181C1.64028 19.4503 1.50167 19.1271 1.50167 18.7485V17.3771H0.0822754V10.9163C0.0822754 10.1163 0.174684 9.31992 0.359501 8.52706L1.50167 3.66278C1.5682 3.10563 1.9286 2.61635 2.58285 2.19492C3.2371 1.77349 4.08726 1.45564 5.13332 1.24135C6.17939 1.02706 7.33449 0.919922 8.59864 0.919922C9.86279 0.919922 11.0179 1.02706 12.064 1.24135C13.11 1.45564 13.9602 1.77349 14.6144 2.19492C15.2687 2.61635 15.6291 3.10563 15.6956 3.66278L16.86 8.52706C17.03 9.25563 17.115 10.0521 17.115 10.9163Z"
      />
    </symbol>

    <symbol viewBox="0 0 25 24" id="icon-bicycle">
      <path
        d="M18.3075 21C17.4664 21 16.6442 20.7471 15.9449 20.2732C15.2456 19.7994 14.7005 19.1258 14.3786 18.3378C14.0568 17.5498 13.9726 16.6827 14.1366 15.8462C14.3007 15.0096 14.7057 14.2412 15.3005 13.6381C15.8952 13.035 16.6529 12.6243 17.4779 12.4579C18.3028 12.2915 19.1578 12.3769 19.9349 12.7033C20.7119 13.0297 21.3761 13.5824 21.8434 14.2916C22.3106 15.0008 22.5601 15.8346 22.5601 16.6875C22.5588 17.8309 22.1104 18.927 21.3132 19.7355C20.5159 20.544 19.435 20.9988 18.3075 21V21ZM18.3075 13.875C17.759 13.875 17.2228 14.04 16.7667 14.349C16.3106 14.658 15.9551 15.0973 15.7452 15.6112C15.5353 16.1251 15.4804 16.6906 15.5874 17.2362C15.6944 17.7818 15.9585 18.2829 16.3464 18.6762C16.7343 19.0696 17.2284 19.3374 17.7664 19.446C18.3044 19.5545 18.8621 19.4988 19.3688 19.2859C19.8756 19.073 20.3088 18.7126 20.6135 18.25C20.9182 17.7875 21.0809 17.2438 21.0809 16.6875C21.08 15.9418 20.7876 15.227 20.2676 14.6997C19.7477 14.1725 19.0428 13.8759 18.3075 13.875V13.875Z"
      />
      <path
        d="M6.10449 21C5.26342 21 4.44123 20.7471 3.7419 20.2732C3.04257 19.7994 2.4975 19.1258 2.17564 18.3378C1.85377 17.5498 1.76956 16.6827 1.93364 15.8462C2.09773 15.0096 2.50275 14.2412 3.09748 13.6381C3.69221 13.035 4.44994 12.6243 5.27486 12.4579C6.09978 12.2915 6.95483 12.3769 7.73188 12.7033C8.50893 13.0297 9.17309 13.5824 9.64037 14.2916C10.1076 15.0008 10.3571 15.8346 10.3571 16.6875C10.3558 17.8309 9.9074 18.927 9.11016 19.7355C8.31291 20.544 7.23197 20.9988 6.10449 21V21ZM6.10449 13.875C5.55596 13.875 5.01975 14.04 4.56367 14.349C4.10758 14.658 3.75211 15.0973 3.5422 15.6112C3.33228 16.1251 3.27736 16.6906 3.38437 17.2362C3.49139 17.7818 3.75553 18.2829 4.1434 18.6762C4.53126 19.0696 5.02544 19.3374 5.56343 19.446C6.10142 19.5545 6.65906 19.4988 7.16583 19.2859C7.67261 19.073 8.10575 18.7126 8.4105 18.25C8.71525 17.7875 8.8779 17.2438 8.8779 16.6875C8.87705 15.9418 8.58458 15.227 8.06465 14.6997C7.54472 14.1725 6.83979 13.8759 6.10449 13.875V13.875Z"
      />
      <path
        d="M15.1644 6.00005C15.3592 6.00073 15.5522 5.96225 15.7323 5.88681C15.9123 5.81138 16.0759 5.7005 16.2134 5.56058C16.351 5.42065 16.4598 5.25447 16.5336 5.07163C16.6074 4.88879 16.6448 4.69293 16.6435 4.49536C16.6457 4.29878 16.6092 4.10374 16.5361 3.92164C16.4631 3.73954 16.3549 3.57403 16.2181 3.4348C16.0812 3.29558 15.9183 3.18542 15.739 3.11077C15.5597 3.03612 15.3675 2.99848 15.1736 3.00005C14.9794 2.99943 14.7869 3.03762 14.6072 3.11243C14.4275 3.18725 14.2641 3.29722 14.1263 3.43607C13.9885 3.57492 13.8791 3.73994 13.8042 3.92169C13.7293 4.10344 13.6904 4.29838 13.6898 4.49536C13.6892 4.69234 13.7269 4.88752 13.8007 5.06974C13.8744 5.25197 13.9829 5.41767 14.1198 5.55739C14.2567 5.69712 14.4194 5.80812 14.5987 5.88407C14.7779 5.96002 14.9701 5.99943 15.1644 6.00005V6.00005Z"
      />
      <path
        d="M17.3622 9.00003H15.3395C15.3063 9.00004 15.2737 8.99099 15.2452 8.97384C15.2167 8.95668 15.1932 8.93205 15.1773 8.90253L13.7101 6.17581C13.6068 5.97318 13.4578 5.79807 13.2753 5.66467C13.0928 5.53127 12.8818 5.44333 12.6596 5.40795C12.4373 5.37258 12.21 5.39077 11.996 5.46106C11.7819 5.53135 11.5872 5.65175 11.4276 5.81253L8.19843 9.11253C7.92715 9.39333 7.77316 9.76945 7.76855 10.1625C7.76855 10.9782 8.35097 11.2688 8.62369 11.4328C9.94106 12.2025 10.8688 12.7655 11.3777 13.0782C11.4047 13.0949 11.4271 13.1183 11.4427 13.1463C11.4582 13.1743 11.4664 13.2059 11.4664 13.238V16.478C11.4664 16.8816 11.7724 17.228 12.1704 17.2482C12.2703 17.253 12.3702 17.2373 12.464 17.2019C12.5577 17.1666 12.6434 17.1123 12.7159 17.0423C12.7883 16.9724 12.8461 16.8883 12.8855 16.7951C12.925 16.7018 12.9455 16.6015 12.9456 16.5V12.4688C12.9457 12.3497 12.9178 12.2324 12.8642 12.1264C12.8107 12.0204 12.7331 11.9289 12.6377 11.8594L10.9275 10.6121C10.906 10.5965 10.8881 10.5764 10.8749 10.5532C10.8617 10.53 10.8536 10.5043 10.851 10.4776C10.8485 10.451 10.8516 10.4241 10.8602 10.3988C10.8687 10.3734 10.8825 10.3503 10.9007 10.3308L12.842 8.23128C12.862 8.20968 12.8866 8.19316 12.914 8.18307C12.9414 8.17297 12.9708 8.1696 12.9997 8.17321C13.0287 8.17682 13.0563 8.18731 13.0805 8.20384C13.1047 8.22037 13.1247 8.24246 13.1388 8.26831L14.1474 10.1143C14.2115 10.2313 14.3053 10.3288 14.4191 10.3966C14.5329 10.4644 14.6625 10.5001 14.7945 10.5H17.383C17.4832 10.5002 17.5824 10.4796 17.6745 10.4397C17.7667 10.3998 17.8498 10.3413 17.919 10.2678C17.9882 10.1942 18.0419 10.1073 18.0769 10.012C18.1119 9.91685 18.1274 9.81543 18.1226 9.71394C18.1032 9.31035 17.7602 9.00003 17.3622 9.00003Z"
      />
    </symbol>

    <svg viewBox="0 0 21 24" id="icon-run">
      <path
        d="M14.9758 5.75992C15.9264 5.75992 16.697 4.90031 16.697 3.83992C16.697 2.77954 15.9264 1.91992 14.9758 1.91992C14.0252 1.91992 13.2546 2.77954 13.2546 3.83992C13.2546 4.90031 14.0252 5.75992 14.9758 5.75992Z"
      />
      <path
        d="M13.9233 10.5302C14.1209 10.8586 14.4043 11.1113 14.735 11.2538C15.0657 11.3964 15.4277 11.4219 15.7719 11.327L18.6256 10.5312L18.21 8.66881L15.3562 9.46465L14.1695 7.48033C13.9159 7.05655 13.5224 6.76184 13.0748 6.66049L9.76493 5.92129C9.39465 5.83839 9.01021 5.89379 8.67097 6.07893C8.33173 6.26406 8.05657 6.56863 7.88797 6.94561L6.4611 10.129L8.00071 10.9882L9.42758 7.80385L11.1204 8.18209L6.74338 16.32H2.92749V18.24H6.74338C7.34407 18.24 7.90949 17.8829 8.2193 17.3078L9.86993 14.2397L14.3184 15.2323L15.8812 20.4634L17.5129 19.8557L15.9509 14.6256C15.8545 14.3045 15.684 14.0174 15.4564 13.7933C15.2289 13.5691 14.9524 13.4158 14.6548 13.3488L12.0395 12.7661L13.5645 9.93025L13.9233 10.5302V10.5302Z"
      />
    </svg>
  </g>

  <g class="icon-level">
    <symbol viewBox="0 0 100 100" id="icon-level-80">
      <path fill-rule="evenodd" clip-rule="evenodd"
            d="M5.76698 26.6667C2.08488 33.6324 0 41.5727 0 50C0 77.6142 22.3858 100 50 100C77.6142 100 100 77.6142 100 50C100 22.3858 77.6142 0 50 0V3C75.9574 3 97 24.0426 97 50C97 75.9574 75.9574 97 50 97C24.0426 97 3 75.9574 3 50C3 41.508 5.25217 33.5419 9.19181 26.6667H5.76698Z"
            fill="#FF8D30"/>
    </symbol>
  </g>

  <symbol viewBox="0 0 60 60" id="icon-logo-academy">
    <path
      d="M30.2 5h-.2l-19.7 2.1v36.2l19.7 11.7 19.7-11.7v-36.2l-19.5-2.1zm17 36.8l-17.2 10.2-17.2-10.2v-14.8l17.1 10.2v1.8l-11.7-7v1.8l11.8 7.1v1.9l-11.8-7v1.8l11.8 7 11.9-7.1v-7.6l5.3-3.2v15.1zm-.1-17l-4.7 2.8-2.2 1.3-10.3-6.1v1.8l8.8 5.3h-.1l-.2.1-1.3.7-7.3-4.3v1.8l5.8 3.4-1.4.9-4.3-2.6v1.8l2.9 1.7-2.9 1.7-17-10.1 17-10.2 17.2 10zm.1-1.8l-17.3-10.2-17.1 10.2v-13.6l17.2-1.8 17.2 1.8v13.6z"/>
  </symbol>

  <symbol viewBox="0 0 12 14" id="icon-arrow">
    <path d="M11.3845 7L0.134521 13.4952L0.134521 0.504809L11.3845 7Z"/>
  </symbol>

</svg>
